<?xml version="1.0" encoding="UTF-8"?>
<svg version="1.1" xmlns="http://www.w3.org/2000/svg" width="576" height="460">
<path d="M0 0 C0 0.99 0 1.98 0 3 C1.299375 2.979375 2.59875 2.95875 3.9375 2.9375 C5.29165633 2.91600546 6.64756083 2.92851801 8 3 C8.33 3.33 8.66 3.66 9 4 C10.34747084 4.23075082 11.70377565 4.41153063 13.0625 4.5625 C14.361875 4.706875 15.66125 4.85125 17 5 C17 5.66 17 6.32 17 7 C19.64 7 22.28 7 25 7 C25 7.66 25 8.32 25 9 C25.63808594 8.98839844 26.27617187 8.97679687 26.93359375 8.96484375 C27.75988281 8.95582031 28.58617187 8.94679688 29.4375 8.9375 C30.26121094 8.92589844 31.08492187 8.91429687 31.93359375 8.90234375 C34 9 34 9 35 10 C36.34747084 10.23075082 37.70377565 10.41153063 39.0625 10.5625 C40.361875 10.706875 41.66125 10.85125 43 11 C43 11.66 43 12.32 43 13 C44.19625 12.95875 45.3925 12.9175 46.625 12.875 C50.42329953 12.86148292 53.44975618 13.57990247 57 15 C57 15.66 57 16.32 57 17 C57.66 17 58.32 17 59 17 C59.99 19.97 59.99 19.97 61 23 C61.66 23 62.32 23 63 23 C63 24.32 63 25.64 63 27 C63.66 27 64.32 27 65 27 C65 27.66 65 28.32 65 29 C65.66 29 66.32 29 67 29 C67 30.32 67 31.64 67 33 C67.66 33 68.32 33 69 33 C71 36 71 36 71 39 C71.66 39 72.32 39 73 39 C73.99 41.97 73.99 41.97 75 45 C75.66 45 76.32 45 77 45 C77 46.32 77 47.64 77 49 C77.66 49 78.32 49 79 49 C79 49.66 79 50.32 79 51 C79.66 51 80.32 51 81 51 C81 52.32 81 53.64 81 55 C81.66 55 82.32 55 83 55 C83.66 56.98 84.32 58.96 85 61 C85.66 61 86.32 61 87 61 C87.66 62.98 88.32 64.96 89 67 C89.66 67 90.32 67 91 67 C91 68.32 91 69.64 91 71 C91.66 71 92.32 71 93 71 C95 74 95 74 95 77 C95.66 77 96.32 77 97 77 C97.66 78.98 98.32 80.96 99 83 C99.66 83 100.32 83 101 83 C101 84.32 101 85.64 101 87 C101.66 87 102.32 87 103 87 C105 90 105 90 105 93 C105.66 93 106.32 93 107 93 C107.66 94.98 108.32 96.96 109 99 C109.66 99 110.32 99 111 99 C111 100.32 111 101.64 111 103 C111.66 103 112.32 103 113 103 C113 103.66 113 104.32 113 105 C113.66 105 114.32 105 115 105 C115 106.32 115 107.64 115 109 C115.66 109 116.32 109 117 109 C119 112 119 112 119 115 C119.66 115 120.32 115 121 115 C121.66 116.98 122.32 118.96 123 121 C123.66 121 124.32 121 125 121 C125 122.32 125 123.64 125 125 C125.66 125 126.32 125 127 125 C129 128 129 128 129 131 C129.66 131 130.32 131 131 131 C131.66 132.98 132.32 134.96 133 137 C133.66 137 134.32 137 135 137 C135 138.32 135 139.64 135 141 C135.66 141 136.32 141 137 141 C137 141.66 137 142.32 137 143 C137.66 143 138.32 143 139 143 C139 144.32 139 145.64 139 147 C139.66 147 140.32 147 141 147 C143 150 143 150 143 153 C143.66 153 144.32 153 145 153 C145 154.32 145 155.64 145 157 C145.66 157 146.32 157 147 157 C147 157.66 147 158.32 147 159 C147.66 159 148.32 159 149 159 C149 160.32 149 161.64 149 163 C149.66 163 150.32 163 151 163 C153 166 153 166 153 169 C154.98 169 156.96 169 159 169 C159 169.66 159 170.32 159 171 C159.99 170.938125 160.98 170.87625 162 170.8125 C165.75721915 170.79734992 168.56322618 171.84258584 172 173.265625 C174.97655754 174.35857972 177.85418636 174.67231108 181 175 C181 175.66 181 176.32 181 177 C183.64 177 186.28 177 189 177 C189 177.66 189 178.32 189 179 C189.99 178.938125 190.98 178.87625 192 178.8125 C195.75721915 178.79734992 198.56322618 179.84258584 202 181.265625 C204.97655754 182.35857972 207.85418636 182.67231108 211 183 C211 183.66 211 184.32 211 185 C213.64 185 216.28 185 219 185 C219 185.66 219 186.32 219 187 C220.010625 186.95875 221.02125 186.9175 222.0625 186.875 C226.18076052 187.00573843 229.11830533 187.73250786 233 189 C233 189.66 233 190.32 233 191 C235.64 191 238.28 191 241 191 C241 191.66 241 192.32 241 193 C243.64 193 246.28 193 249 193 C249 193.66 249 194.32 249 195 C250.010625 194.95875 251.02125 194.9175 252.0625 194.875 C256.18076052 195.00573843 259.11830533 195.73250786 263 197 C263 197.66 263 198.32 263 199 C265.64 199 268.28 199 271 199 C271 199.66 271 200.32 271 201 C271.680625 200.9175 272.36125 200.835 273.0625 200.75 C277.16875665 201.09946865 279.52321895 202.81849032 283 205 C283 205.66 283 206.32 283 207 C284.0828125 207.3403125 284.0828125 207.3403125 285.1875 207.6875 C288.58457087 209.27279974 290.5749552 211.15923323 293 214 C293 214.99 293 215.98 293 217 C293.66 217 294.32 217 295 217 C295 217.66 295 218.32 295 219 C295.66 219 296.32 219 297 219 C297 220.32 297 221.64 297 223 C297.66 223 298.32 223 299 223 C301.86488268 229.14284148 303.46879786 234.57591346 303.82421875 241.359375 C303.94643993 244.0589433 303.94643993 244.0589433 304.578125 246.8984375 C305.06299688 250.46314373 304.6761475 253.33750265 304.0625 256.875 C303.77052734 258.60363281 303.77052734 258.60363281 303.47265625 260.3671875 C303.31667969 261.23601562 303.16070313 262.10484375 303 263 C302.34 263 301.68 263 301 263 C301.07992188 263.68449219 301.15984375 264.36898438 301.2421875 265.07421875 C300.92031333 268.9626664 299.18760782 271.61153249 297.125 274.8125 C296.76019531 275.40998047 296.39539063 276.00746094 296.01953125 276.62304688 C295.07626584 278.1236964 294.04426955 279.56779899 293 281 C292.34 281 291.68 281 291 281 C291 281.66 291 282.32 291 283 C290.34 283 289.68 283 289 283 C289 283.66 289 284.32 289 285 C287.02 285.66 285.04 286.32 283 287 C283 287.66 283 288.32 283 289 C281.77217138 289.62762455 280.54266164 290.25196065 279.3125 290.875 C278.62800781 291.22304688 277.94351562 291.57109375 277.23828125 291.9296875 C272.30497533 294.28872035 268.70866319 295.24412919 263.16796875 295.1953125 C261.87568359 295.18886719 260.58339844 295.18242187 259.25195312 295.17578125 C257.8971327 295.15907327 256.54231499 295.14214342 255.1875 295.125 C253.81315749 295.11496003 252.43880797 295.10583596 251.06445312 295.09765625 C247.70945683 295.07411242 244.35481801 295.04122567 241 295 C241 294.34 241 293.68 241 293 C239.515 293.0928125 239.515 293.0928125 238 293.1875 C234.24278085 293.20265008 231.43677382 292.15741416 228 290.734375 C225.02344246 289.64142028 222.14581364 289.32768892 219 289 C219 288.34 219 287.68 219 287 C217.515 287.0928125 217.515 287.0928125 216 287.1875 C212.24278085 287.20265008 209.43677382 286.15741416 206 284.734375 C203.02344246 283.64142028 200.14581364 283.32768892 197 283 C197 282.34 197 281.68 197 281 C195.515 281.0928125 195.515 281.0928125 194 281.1875 C190.24278085 281.20265008 187.43677382 280.15741416 184 278.734375 C181.02344246 277.64142028 178.14581364 277.32768892 175 277 C175 276.34 175 275.68 175 275 C172.36 275 169.72 275 167 275 C167 274.34 167 273.68 167 273 C165.515 273.0928125 165.515 273.0928125 164 273.1875 C160.24278085 273.20265008 157.43677382 272.15741416 154 270.734375 C151.02344246 269.64142028 148.14581364 269.32768892 145 269 C145 268.34 145 267.68 145 267 C143.515 267.0928125 143.515 267.0928125 142 267.1875 C138.24278085 267.20265008 135.43677382 266.15741416 132 264.734375 C129.02344246 263.64142028 126.14581364 263.32768892 123 263 C123 262.34 123 261.68 123 261 C121.515 261.0928125 121.515 261.0928125 120 261.1875 C116.24278085 261.20265008 113.43677382 260.15741416 110 258.734375 C107.02344246 257.64142028 104.14581364 257.32768892 101 257 C101 256.34 101 255.68 101 255 C99.2984375 255.0309375 99.2984375 255.0309375 97.5625 255.0625 C94 255 94 255 93 254 C91.96875 253.855625 90.9375 253.71125 89.875 253.5625 C86.05654608 253.0082083 82.67780895 252.12585988 79 251 C79 250.34 79 249.68 79 249 C77.68 248.67 76.36 248.34 75 248 C75 247.01 75 246.02 75 245 C74.34 245 73.68 245 73 245 C72.24489897 233.5392444 72.24489897 233.5392444 74.625 228.6875 C80.679998 225.660001 87.94712324 225.91880125 94.4453125 227.65234375 C96.31545192 228.3893987 98.15913552 229.1926033 100 230 C102.3402334 230.48511556 104.61889422 230.75196815 107 231 C107 231.66 107 232.32 107 233 C109.64 233 112.28 233 115 233 C115 233.66 115 234.32 115 235 C116.010625 234.95875 117.02125 234.9175 118.0625 234.875 C122.18076052 235.00573843 125.11830533 235.73250786 129 237 C129 237.66 129 238.32 129 239 C131.64 239 134.28 239 137 239 C137 239.66 137 240.32 137 241 C137.99 240.938125 138.98 240.87625 140 240.8125 C143.75721915 240.79734992 146.56322618 241.84258584 150 243.265625 C152.97655754 244.35857972 155.85418636 244.67231108 159 245 C159 245.66 159 246.32 159 247 C159.99 246.938125 160.98 246.87625 162 246.8125 C165.75721915 246.79734992 168.56322618 247.84258584 172 249.265625 C174.97655754 250.35857972 177.85418636 250.67231108 181 251 C181 251.66 181 252.32 181 253 C183.64 253 186.28 253 189 253 C189 253.66 189 254.32 189 255 C189.99 254.938125 190.98 254.87625 192 254.8125 C195.75721915 254.79734992 198.56322618 255.84258584 202 257.265625 C204.97655754 258.35857972 207.85418636 258.67231108 211 259 C211 259.66 211 260.32 211 261 C212.485 260.9071875 212.485 260.9071875 214 260.8125 C217.75721915 260.79734992 220.56322618 261.84258584 224 263.265625 C226.97655754 264.35857972 229.85418636 264.67231108 233 265 C233 265.66 233 266.32 233 267 C234.5159375 266.938125 234.5159375 266.938125 236.0625 266.875 C240.18076052 267.00573843 243.11830533 267.73250786 247 269 C247 269.66 247 270.32 247 271 C252.28 271 257.56 271 263 271 C263 270.34 263 269.68 263 269 C264.32 269 265.64 269 267 269 C267 268.34 267 267.68 267 267 C267.763125 266.566875 268.52625 266.13375 269.3125 265.6875 C272.33046024 263.79250171 273.27104338 262.04625691 275 259 C275.66 259 276.32 259 277 259 C277.98142381 254.75266168 278.30920379 250.52675467 278.5625 246.1875 C278.60568359 245.49462891 278.64886719 244.80175781 278.69335938 244.08789062 C278.79861453 242.39211314 278.89972863 240.69607948 279 239 C278.34 239 277.68 239 277 239 C277 237.68 277 236.36 277 235 C276.34 235 275.68 235 275 235 C274.34 233.02 273.68 231.04 273 229 C272.34 229 271.68 229 271 229 C271 228.34 271 227.68 271 227 C269.68 227 268.36 227 267 227 C267 226.34 267 225.68 267 225 C263.7 224.34 260.4 223.68 257 223 C257 222.34 257 221.68 257 221 C256.01 221.061875 255.02 221.12375 254 221.1875 C250.24278085 221.20265008 247.43677382 220.15741416 244 218.734375 C241.02344246 217.64142028 238.14581364 217.32768892 235 217 C235 216.34 235 215.68 235 215 C232.36 215 229.72 215 227 215 C227 214.34 227 213.68 227 213 C225.989375 213.04125 224.97875 213.0825 223.9375 213.125 C219.81923948 212.99426157 216.88169467 212.26749214 213 211 C213 210.34 213 209.68 213 209 C210.36 209 207.72 209 205 209 C205 208.34 205 207.68 205 207 C203.2984375 207.0309375 203.2984375 207.0309375 201.5625 207.0625 C198 207 198 207 197 206 C195.96875 205.855625 194.9375 205.71125 193.875 205.5625 C190.05654608 205.0082083 186.67780895 204.12585988 183 203 C183 202.34 183 201.68 183 201 C180.36 201 177.72 201 175 201 C175 200.34 175 199.68 175 199 C174.01 199.061875 173.02 199.12375 172 199.1875 C168.24278085 199.20265008 165.43677382 198.15741416 162 196.734375 C159.02344246 195.64142028 156.14581364 195.32768892 153 195 C153 194.34 153 193.68 153 193 C150.36 193 147.72 193 145 193 C145 192.34 145 191.68 145 191 C143.02 191 141.04 191 139 191 C139 190.34 139 189.68 139 189 C138.34 189 137.68 189 137 189 C137 188.34 137 187.68 137 187 C136.34 187 135.68 187 135 187 C135 186.34 135 185.68 135 185 C134.34 185 133.68 185 133 185 C133 183.68 133 182.36 133 181 C132.34 181 131.68 181 131 181 C131 180.34 131 179.68 131 179 C130.34 179 129.68 179 129 179 C129 177.68 129 176.36 129 175 C128.34 175 127.68 175 127 175 C125 172 125 172 125 169 C124.34 169 123.68 169 123 169 C123 167.68 123 166.36 123 165 C122.34 165 121.68 165 121 165 C121 164.34 121 163.68 121 163 C120.34 163 119.68 163 119 163 C119 161.68 119 160.36 119 159 C118.34 159 117.68 159 117 159 C115 156 115 156 115 153 C114.34 153 113.68 153 113 153 C113 151.68 113 150.36 113 149 C112.34 149 111.68 149 111 149 C111 148.34 111 147.68 111 147 C110.34 147 109.68 147 109 147 C109 145.68 109 144.36 109 143 C108.34 143 107.68 143 107 143 C107 142.34 107 141.68 107 141 C106.34 141 105.68 141 105 141 C105 139.68 105 138.36 105 137 C104.34 137 103.68 137 103 137 C101 134 101 134 101 131 C100.34 131 99.68 131 99 131 C99 129.68 99 128.36 99 127 C98.34 127 97.68 127 97 127 C97 126.34 97 125.68 97 125 C96.34 125 95.68 125 95 125 C95 123.68 95 122.36 95 121 C94.34 121 93.68 121 93 121 C91 118 91 118 91 115 C90.34 115 89.68 115 89 115 C88.34 113.02 87.68 111.04 87 109 C86.34 109 85.68 109 85 109 C85 107.68 85 106.36 85 105 C84.34 105 83.68 105 83 105 C83 104.34 83 103.68 83 103 C82.34 103 81.68 103 81 103 C81 101.68 81 100.36 81 99 C80.34 99 79.68 99 79 99 C78.34 97.02 77.68 95.04 77 93 C76.34 93 75.68 93 75 93 C75 91.68 75 90.36 75 89 C74.34 89 73.68 89 73 89 C73 88.34 73 87.68 73 87 C72.34 87 71.68 87 71 87 C71 85.68 71 84.36 71 83 C70.34 83 69.68 83 69 83 C67 80 67 80 67 77 C66.34 77 65.68 77 65 77 C64.34 75.02 63.68 73.04 63 71 C62.34 71 61.68 71 61 71 C61 69.68 61 68.36 61 67 C60.34 67 59.68 67 59 67 C59 66.34 59 65.68 59 65 C58.34 65 57.68 65 57 65 C57 63.68 57 62.36 57 61 C56.34 61 55.68 61 55 61 C53 58 53 58 53 55 C52.34 55 51.68 55 51 55 C51 53.68 51 52.36 51 51 C50.34 51 49.68 51 49 51 C49 50.34 49 49.68 49 49 C48.34 49 47.68 49 47 49 C47 47.68 47 46.36 47 45 C46.34 45 45.68 45 45 45 C43 42 43 42 43 39 C42.34 39 41.68 39 41 39 C41 38.34 41 37.68 41 37 C37.92381813 36.32708522 34.87574503 35.85417615 31.75 35.5 C28 35 28 35 27 34 C25.65252916 33.76924918 24.29622435 33.58846937 22.9375 33.4375 C21.638125 33.293125 20.33875 33.14875 19 33 C19 32.34 19 31.68 19 31 C16.36 31 13.72 31 11 31 C11 30.34 11 29.68 11 29 C9.02 29 7.04 29 5 29 C5 29.66 5 30.32 5 31 C5.66 31 6.32 31 7 31 C7 34.3 7 37.6 7 41 C7.66 41 8.32 41 9 41 C9.06058594 41.63808594 9.12117187 42.27617188 9.18359375 42.93359375 C9.26738281 43.75988281 9.35117188 44.58617187 9.4375 45.4375 C9.55931641 46.67306641 9.55931641 46.67306641 9.68359375 47.93359375 C9.78930815 49.98662025 9.78930815 49.98662025 11 51 C11.32097751 53.31817089 11.51220956 55.63779357 11.71875 57.96875 C11.79065837 59.99180593 11.79065837 59.99180593 13 61 C13.31923492 63.0572917 13.51161352 65.11613521 13.71875 67.1875 C13.81998043 69.0167533 13.81998043 69.0167533 15 70 C15.32097751 72.31817089 15.51220956 74.63779357 15.71875 76.96875 C15.79065837 78.99180593 15.79065837 78.99180593 17 80 C17.07179964 81.51928038 17.08392007 83.04167482 17.0625 84.5625 C17.05347656 85.38878906 17.04445313 86.21507813 17.03515625 87.06640625 C17.02355469 87.70449219 17.01195312 88.34257813 17 89 C17.66 89 18.32 89 19 89 C19 92.3 19 95.6 19 99 C19.66 99 20.32 99 21 99 C21.06058594 99.63808594 21.12117187 100.27617187 21.18359375 100.93359375 C21.26738281 101.75988281 21.35117187 102.58617187 21.4375 103.4375 C21.51871094 104.26121094 21.59992188 105.08492188 21.68359375 105.93359375 C21.78930815 107.98662025 21.78930815 107.98662025 23 109 C23.32097751 111.31817089 23.51220956 113.63779357 23.71875 115.96875 C23.79065837 117.99180593 23.79065837 117.99180593 25 119 C25.32097751 121.31817089 25.51220956 123.63779357 25.71875 125.96875 C25.79065837 127.99180593 25.79065837 127.99180593 27 129 C27.32097751 131.31817089 27.51220956 133.63779357 27.71875 135.96875 C27.79065837 137.99180593 27.79065837 137.99180593 29 139 C29.07244053 141.01964199 29.08377188 143.04167124 29.0625 145.0625 C29.05347656 146.16722656 29.04445313 147.27195313 29.03515625 148.41015625 C29.01775391 149.69212891 29.01775391 149.69212891 29 151 C28.34 151 27.68 151 27 151 C27 151.66 27 152.32 27 153 C26.34 153 25.68 153 25 153 C25 153.66 25 154.32 25 155 C21.57905758 157.28062828 20.31812778 157.21925007 16.3125 157.125 C15.31863281 157.10695312 14.32476562 157.08890625 13.30078125 157.0703125 C12.54152344 157.04710937 11.78226563 157.02390625 11 157 C11 156.34 11 155.68 11 155 C8.36 155 5.72 155 3 155 C3 154.34 3 153.68 3 153 C1.989375 153.04125 0.97875 153.0825 -0.0625 153.125 C-4.18076052 152.99426157 -7.11830533 152.26749214 -11 151 C-11 150.34 -11 149.68 -11 149 C-13.64 149 -16.28 149 -19 149 C-19 148.34 -19 147.68 -19 147 C-21.64 147 -24.28 147 -27 147 C-27 146.34 -27 145.68 -27 145 C-28.010625 145.04125 -29.02125 145.0825 -30.0625 145.125 C-34.18076052 144.99426157 -37.11830533 144.26749214 -41 143 C-41 142.34 -41 141.68 -41 141 C-43.64 141 -46.28 141 -49 141 C-49 140.34 -49 139.68 -49 139 C-50.7015625 139.0309375 -50.7015625 139.0309375 -52.4375 139.0625 C-56 139 -56 139 -57 138 C-58.03125 137.855625 -59.0625 137.71125 -60.125 137.5625 C-63.94345392 137.0082083 -67.32219105 136.12585988 -71 135 C-71 134.34 -71 133.68 -71 133 C-73.64 133 -76.28 133 -79 133 C-79 132.34 -79 131.68 -79 131 C-80.32 131 -81.64 131 -83 131 C-85 128 -85 128 -85 125 C-85.66 125 -86.32 125 -87 125 C-87 123.68 -87 122.36 -87 121 C-87.66 121 -88.32 121 -89 121 C-89 120.34 -89 119.68 -89 119 C-89.66 119 -90.32 119 -91 119 C-91 117.68 -91 116.36 -91 115 C-91.66 115 -92.32 115 -93 115 C-93.66 113.02 -94.32 111.04 -95 109 C-95.66 109 -96.32 109 -97 109 C-97 107.68 -97 106.36 -97 105 C-97.66 105 -98.32 105 -99 105 C-101 102 -101 102 -101 99 C-101.66 99 -102.32 99 -103 99 C-103.66 97.02 -104.32 95.04 -105 93 C-105.66 93 -106.32 93 -107 93 C-107 91.68 -107 90.36 -107 89 C-107.66 89 -108.32 89 -109 89 C-109 87.68 -109 86.36 -109 85 C-109.66 85 -110.32 85 -111 85 C-111 84.34 -111 83.68 -111 83 C-111.66 83 -112.32 83 -113 83 C-113 81.68 -113 80.36 -113 79 C-113.66 79 -114.32 79 -115 79 C-117 76 -117 76 -117 73 C-117.66 73 -118.32 73 -119 73 C-119 71.68 -119 70.36 -119 69 C-119.66 69 -120.32 69 -121 69 C-121.53625 68.195625 -122.0725 67.39125 -122.625 66.5625 C-125.96326916 62.96068328 -128.19216792 63.31526768 -133 63 C-133.33 62.67 -133.66 62.34 -134 62 C-137.26422335 61.7131854 -140.52864491 61.55112395 -143.80078125 61.37890625 C-146.74200509 61.03055617 -148.50352719 60.52254021 -151 59 C-150.71125 59.515625 -150.4225 60.03125 -150.125 60.5625 C-147.59164126 66.05144393 -146.7541139 70.97579064 -147 77 C-146.34 77 -145.68 77 -145 77 C-143.4087311 81.873261 -142.78807779 85.80790596 -143 91 C-142.34 91 -141.68 91 -141 91 C-141 93.64 -141 96.28 -141 99 C-140.34 99 -139.68 99 -139 99 C-139 100.98 -139 102.96 -139 105 C-138.34 105 -137.68 105 -137 105 C-137 107.64 -137 110.28 -137 113 C-136.34 113 -135.68 113 -135 113 C-133.4087311 117.873261 -132.78807779 121.80790596 -133 127 C-132.34 127 -131.68 127 -131 127 C-131 128.98 -131 130.96 -131 133 C-130.34 133 -129.68 133 -129 133 C-128.81824219 133.60328125 -128.63648438 134.2065625 -128.44921875 134.828125 C-127.09606276 139.13046712 -125.86043836 142.45850489 -123 146 C-123 146.99 -123 147.98 -123 149 C-122.34 149 -121.68 149 -121 149 C-119 152 -119 152 -119 155 C-118.34 155 -117.68 155 -117 155 C-117 155.66 -117 156.32 -117 157 C-116.34 157 -115.68 157 -115 157 C-115 157.66 -115 158.32 -115 159 C-114.34 159 -113.68 159 -113 159 C-113 159.66 -113 160.32 -113 161 C-112.34 161 -111.68 161 -111 161 C-111 161.66 -111 162.32 -111 163 C-110.34 163 -109.68 163 -109 163 C-109 163.66 -109 164.32 -109 165 C-108.34 165 -107.68 165 -107 165 C-107 165.66 -107 166.32 -107 167 C-106.34 167 -105.68 167 -105 167 C-105 167.66 -105 168.32 -105 169 C-104.38125 169.144375 -103.7625 169.28875 -103.125 169.4375 C-101 170 -101 170 -99 171 C-99 171.66 -99 172.32 -99 173 C-98.13375 173.185625 -98.13375 173.185625 -97.25 173.375 C-94.26023628 174.20548992 -91.72993637 175.6122213 -89 177.0625 C-87.01065256 177.99500661 -85.14321257 178.54074016 -83 179 C-83 179.66 -83 180.32 -83 181 C-81.02 181 -79.04 181 -77 181 C-77 181.66 -77 182.32 -77 183 C-76.01 182.938125 -75.02 182.87625 -74 182.8125 C-70.24278085 182.79734992 -67.43677382 183.84258584 -64 185.265625 C-61.02344246 186.35857972 -58.14581364 186.67231108 -55 187 C-55 187.66 -55 188.32 -55 189 C-52.36 189 -49.72 189 -47 189 C-47 189.66 -47 190.32 -47 191 C-46.030625 190.979375 -45.06125 190.95875 -44.0625 190.9375 C-41 191 -41 191 -40 192 C-37.67182036 192.36760731 -35.3381615 192.70241581 -33 193 C-33 193.66 -33 194.32 -33 195 C-30.36 195 -27.72 195 -25 195 C-25 195.66 -25 196.32 -25 197 C-24.01 196.938125 -23.02 196.87625 -22 196.8125 C-18.24278085 196.79734992 -15.43677382 197.84258584 -12 199.265625 C-9.02344246 200.35857972 -6.14581364 200.67231108 -3 201 C-3 201.66 -3 202.32 -3 203 C-2.0925 202.938125 -1.185 202.87625 -0.25 202.8125 C3.30029087 203.01732447 4.56086737 203.46705458 7 206 C7 206.99 7 207.98 7 209 C7.66 209 8.32 209 9 209 C9 212.96 9 216.92 9 221 C8.34 221 7.68 221 7 221 C6.67 222.32 6.34 223.64 6 225 C5.01 225 4.02 225 3 225 C3 225.66 3 226.32 3 227 C-0.96 227 -4.92 227 -9 227 C-9 226.34 -9 225.68 -9 225 C-11.64 225 -14.28 225 -17 225 C-17 224.34 -17 223.68 -17 223 C-17.99 223.061875 -18.98 223.12375 -20 223.1875 C-23.75721915 223.20265008 -26.56322618 222.15741416 -30 220.734375 C-32.97655754 219.64142028 -35.85418636 219.32768892 -39 219 C-39 218.34 -39 217.68 -39 217 C-39.99 217.061875 -40.98 217.12375 -42 217.1875 C-45.75721915 217.20265008 -48.56322618 216.15741416 -52 214.734375 C-54.97655754 213.64142028 -57.85418636 213.32768892 -61 213 C-61 212.34 -61 211.68 -61 211 C-63.64 211 -66.28 211 -69 211 C-69 210.34 -69 209.68 -69 209 C-70.010625 209.04125 -71.02125 209.0825 -72.0625 209.125 C-76.18076052 208.99426157 -79.11830533 208.26749214 -83 207 C-83 206.34 -83 205.68 -83 205 C-84.051875 205.04125 -85.10375 205.0825 -86.1875 205.125 C-89.74010173 205.00852125 -91.84866641 204.52791932 -95 203 C-95 202.34 -95 201.68 -95 201 C-96.98 201 -98.96 201 -101 201 C-101 200.34 -101 199.68 -101 199 C-102.32 199 -103.64 199 -105 199 C-105 198.34 -105 197.68 -105 197 C-105.61875 196.855625 -106.2375 196.71125 -106.875 196.5625 C-109 196 -109 196 -111 195 C-111 194.34 -111 193.68 -111 193 C-112.32 193 -113.64 193 -115 193 C-115 192.34 -115 191.68 -115 191 C-115.66 191 -116.32 191 -117 191 C-117 190.34 -117 189.68 -117 189 C-118.32 189 -119.64 189 -121 189 C-121 188.34 -121 187.68 -121 187 C-121.66 187 -122.32 187 -123 187 C-123 186.34 -123 185.68 -123 185 C-123.66 185 -124.32 185 -125 185 C-125 184.34 -125 183.68 -125 183 C-125.66 183 -126.32 183 -127 183 C-127 182.34 -127 181.68 -127 181 C-127.66 181 -128.32 181 -129 181 C-129 180.34 -129 179.68 -129 179 C-129.66 179 -130.32 179 -131 179 C-131 178.34 -131 177.68 -131 177 C-131.66 177 -132.32 177 -133 177 C-133 176.34 -133 175.68 -133 175 C-133.66 175 -134.32 175 -135 175 C-135 174.34 -135 173.68 -135 173 C-135.66 173 -136.32 173 -137 173 C-137 172.34 -137 171.68 -137 171 C-137.66 171 -138.32 171 -139 171 C-139 169.68 -139 168.36 -139 167 C-139.66 167 -140.32 167 -141 167 C-141 166.34 -141 165.68 -141 165 C-141.66 165 -142.32 165 -143 165 C-143 163.68 -143 162.36 -143 161 C-143.66 161 -144.32 161 -145 161 C-145 160.34 -145 159.68 -145 159 C-145.66 159 -146.32 159 -147 159 C-147 157.68 -147 156.36 -147 155 C-147.66 155 -148.32 155 -149 155 C-149 153.68 -149 152.36 -149 151 C-149.66 151 -150.32 151 -151 151 C-152.31626692 147.38026598 -153 144.90432869 -153 141 C-153.66 141 -154.32 141 -155 141 C-155 138.36 -155 135.72 -155 133 C-155.66 133 -156.32 133 -157 133 C-157 131.02 -157 129.04 -157 127 C-157.66 127 -158.32 127 -159 127 C-159 124.36 -159 121.72 -159 119 C-159.66 119 -160.32 119 -161 119 C-161.2165625 117.2984375 -161.2165625 117.2984375 -161.4375 115.5625 C-161.61171478 112.19222799 -161.61171478 112.19222799 -163 111 C-163.04080783 109.00041636 -163.04254356 106.99954746 -163 105 C-163.66 105 -164.32 105 -165 105 C-165 102.36 -165 99.72 -165 97 C-165.66 97 -166.32 97 -167 97 C-167 95.02 -167 93.04 -167 91 C-167.66 91 -168.32 91 -169 91 C-169 88.36 -169 85.72 -169 83 C-169.66 83 -170.32 83 -171 83 C-171.2165625 81.2984375 -171.2165625 81.2984375 -171.4375 79.5625 C-171.61171478 76.19222799 -171.61171478 76.19222799 -173 75 C-173.04080783 73.00041636 -173.04254356 70.99954746 -173 69 C-173.66 69 -174.32 69 -175 69 C-175 66.36 -175 63.72 -175 61 C-175.66 61 -176.32 61 -177 61 C-178.82740271 55.4657926 -179.40036883 50.37015175 -179.625 44.5625 C-179.66367188 43.73556641 -179.70234375 42.90863281 -179.7421875 42.05664062 C-179.83553092 40.03808927 -179.91880961 38.01907669 -180 36 C-179.34 36 -178.68 36 -178 36 C-178 35.34 -178 34.68 -178 34 C-175.11734851 33.03911617 -173.32337729 32.88329059 -170.33203125 32.90234375 C-169.43935547 32.90556641 -168.54667969 32.90878906 -167.62695312 32.91210938 C-166.23379883 32.92467773 -166.23379883 32.92467773 -164.8125 32.9375 C-163.87212891 32.94201172 -162.93175781 32.94652344 -161.96289062 32.95117188 C-159.64186288 32.96295374 -157.32096356 32.97940442 -155 33 C-155 33.66 -155 34.32 -155 35 C-153.60974609 34.98259766 -153.60974609 34.98259766 -152.19140625 34.96484375 C-150.99386719 34.95582031 -149.79632813 34.94679687 -148.5625 34.9375 C-147.36753906 34.92589844 -146.17257813 34.91429687 -144.94140625 34.90234375 C-142 35 -142 35 -141 36 C-138.98405418 36.23427778 -136.961526 36.41336124 -134.9375 36.5625 C-133.83277344 36.64628906 -132.72804687 36.73007813 -131.58984375 36.81640625 C-130.73519531 36.87699219 -129.88054687 36.93757813 -129 37 C-129 37.66 -129 38.32 -129 39 C-124.38 39 -119.76 39 -115 39 C-115 39.66 -115 40.32 -115 41 C-114.0925 40.9175 -113.185 40.835 -112.25 40.75 C-109 41 -109 41 -106.625 42.875 C-105 45 -105 45 -105 47 C-104.34 47 -103.68 47 -103 47 C-103 48.32 -103 49.64 -103 51 C-102.34 51 -101.68 51 -101 51 C-101 51.66 -101 52.32 -101 53 C-100.34 53 -99.68 53 -99 53 C-99 54.32 -99 55.64 -99 57 C-98.34 57 -97.68 57 -97 57 C-96.01 59.97 -96.01 59.97 -95 63 C-94.34 63 -93.68 63 -93 63 C-93 64.32 -93 65.64 -93 67 C-92.34 67 -91.68 67 -91 67 C-89 70 -89 70 -89 73 C-88.34 73 -87.68 73 -87 73 C-87 74.32 -87 75.64 -87 77 C-86.34 77 -85.68 77 -85 77 C-83 80 -83 80 -83 83 C-82.34 83 -81.68 83 -81 83 C-81 84.32 -81 85.64 -81 87 C-80.34 87 -79.68 87 -79 87 C-79 87.66 -79 88.32 -79 89 C-78.34 89 -77.68 89 -77 89 C-77 90.32 -77 91.64 -77 93 C-76.34 93 -75.68 93 -75 93 C-74.34 94.98 -73.68 96.96 -73 99 C-72.34 99 -71.68 99 -71 99 C-71 100.32 -71 101.64 -71 103 C-70.34 103 -69.68 103 -69 103 C-68.34 104.98 -67.68 106.96 -67 109 C-66.34 109 -65.68 109 -65 109 C-65 109.66 -65 110.32 -65 111 C-64.01 110.938125 -63.02 110.87625 -62 110.8125 C-58.24278085 110.79734992 -55.43677382 111.84258584 -52 113.265625 C-49.02344246 114.35857972 -46.14581364 114.67231108 -43 115 C-43 115.66 -43 116.32 -43 117 C-40.36 117 -37.72 117 -35 117 C-35 117.66 -35 118.32 -35 119 C-33.515 118.9071875 -33.515 118.9071875 -32 118.8125 C-28.24278085 118.79734992 -25.43677382 119.84258584 -22 121.265625 C-19.02344246 122.35857972 -16.14581364 122.67231108 -13 123 C-13 123.66 -13 124.32 -13 125 C-10.36 125 -7.72 125 -5 125 C-5 125.66 -5 126.32 -5 127 C-4.01 127 -3.02 127 -2 127 C-1.67 123.04 -1.34 119.08 -1 115 C-1.66 115 -2.32 115 -3 115 C-3 111.7 -3 108.4 -3 105 C-3.66 105 -4.32 105 -5 105 C-5 101.7 -5 98.4 -5 95 C-5.66 95 -6.32 95 -7 95 C-7 91.7 -7 88.4 -7 85 C-7.66 85 -8.32 85 -9 85 C-9 81.7 -9 78.4 -9 75 C-9.66 75 -10.32 75 -11 75 C-11 71.7 -11 68.4 -11 65 C-11.66 65 -12.32 65 -13 65 C-13.22786458 62.94921875 -13.45572917 60.8984375 -13.68359375 58.84765625 C-13.81886614 56.98859771 -13.81886614 56.98859771 -15 56 C-15.32097751 53.68182911 -15.51220956 51.36220643 -15.71875 49.03125 C-15.79065837 47.00819407 -15.79065837 47.00819407 -17 46 C-17.07179964 44.48071962 -17.08392007 42.95832518 -17.0625 41.4375 C-17.05347656 40.61121094 -17.04445312 39.78492188 -17.03515625 38.93359375 C-17.01775391 37.97646484 -17.01775391 37.97646484 -17 37 C-17.66 37 -18.32 37 -19 37 C-19 33.7 -19 30.4 -19 27 C-19.66 27 -20.32 27 -21 27 C-21 23.7 -21 20.4 -21 17 C-21.66 17 -22.32 17 -23 17 C-23.59324643 12.15515415 -23.68231678 8.12054289 -20.8125 4 C-16.93062892 -0.03081578 -12.36453093 0.11583241 -7.0234375 -0.02734375 C-4.68236966 -0.0061713 -2.34116358 0 0 0 Z " fill="#010101" transform="translate(244,34)"/>
<path d="M0 0 C0.84700464 -0.00350607 1.69400928 -0.00701215 2.56668073 -0.01062447 C5.42400499 -0.01997818 8.2811272 -0.01500494 11.13846016 -0.01015663 C13.20003811 -0.01389089 15.26161463 -0.0184915 17.3231889 -0.02388728 C23.00337086 -0.03616039 28.68349412 -0.03585175 34.36368632 -0.03349853 C40.48376998 -0.03309145 46.60383455 -0.04411902 52.72390938 -0.05361366 C64.71968195 -0.070248 76.71542951 -0.07575018 88.71121059 -0.07683842 C98.45839805 -0.0777569 108.20557913 -0.08187042 117.95276451 -0.08823967 C120.7567406 -0.09003471 123.5607167 -0.09181434 126.36469281 -0.09358943 C127.0617347 -0.09403152 127.75877659 -0.09447362 128.47694097 -0.09492911 C148.08771 -0.10724027 167.69847681 -0.11512996 187.30924988 -0.11424255 C188.04886463 -0.1142114 188.78847939 -0.11418024 189.55050671 -0.11414814 C193.29933027 -0.11398192 197.04815383 -0.11378384 200.79697739 -0.11357872 C201.54153068 -0.11353883 202.28608397 -0.11349894 203.05319948 -0.11345784 C204.55886795 -0.11337697 206.06453643 -0.11329337 207.57020491 -0.11320706 C231.00013682 -0.11198133 254.43001087 -0.12699761 277.85992622 -0.15435219 C304.17247582 -0.18505947 330.48498739 -0.20228552 356.79755604 -0.20042574 C359.60216085 -0.20027648 362.40676566 -0.20017907 365.21137047 -0.20011711 C366.24724752 -0.20008215 366.24724752 -0.20008215 367.30405138 -0.20004648 C378.42719185 -0.19998488 389.55028217 -0.21276766 400.67340772 -0.22998164 C411.84823313 -0.24691821 423.02298582 -0.2485837 434.19782339 -0.235763 C440.25420782 -0.22921296 446.31041008 -0.22918945 452.36677742 -0.2464695 C457.90721005 -0.26211531 463.44731477 -0.25942385 468.98773898 -0.24190123 C470.99578969 -0.23881255 473.00386435 -0.24253338 475.01188682 -0.25362138 C477.73502022 -0.26766636 480.45699129 -0.25721637 483.18008423 -0.24050903 C484.3579851 -0.25541357 484.3579851 -0.25541357 485.55968195 -0.27061921 C490.7571935 -0.20289156 493.72691934 0.9461215 497.71588326 4.25726891 C501.12863085 9.3763903 501.02479801 13.55029183 500.52838326 19.50726891 C499.22980646 22.30420353 497.47963388 22.94685064 494.71588326 24.25726891 C491.80267759 24.53807426 489.10840837 24.65512916 486.19825459 24.62641239 C484.90812513 24.63160469 484.90812513 24.63160469 483.59193245 24.63690189 C480.69607928 24.64487287 477.80072171 24.63135884 474.90489388 24.61803246 C472.81342842 24.61934013 470.72196344 24.62196585 468.63050109 24.62579995 C462.87253888 24.63252431 457.11474332 24.62048539 451.35680234 24.60546577 C445.15165159 24.59253778 438.9465106 24.59689257 432.74135017 24.59917259 C421.98690415 24.60074738 411.23252531 24.59142123 400.47809601 24.57445908 C389.19786191 24.55671318 377.91764954 24.54516228 366.63740158 24.54190063 C365.93625381 24.54169442 365.23510604 24.5414882 364.51271136 24.54127573 C360.95199345 24.54026074 357.39127552 24.53935659 353.83055756 24.5384951 C328.60441109 24.53219244 303.37829302 24.51197639 278.15216255 24.48358727 C253.64402607 24.45603798 229.13589735 24.43478517 204.62774849 24.42206383 C203.87241383 24.42166925 203.11707917 24.42127467 202.33885558 24.42086814 C194.75353337 24.4169126 187.16821111 24.41308516 179.58288879 24.40935156 C164.13045981 24.40174274 148.67803134 24.39327899 133.2256031 24.38429832 C132.51511216 24.38388645 131.80462121 24.38347458 131.07260024 24.38305023 C83.62034917 24.35544427 36.16811481 24.30784585 -11.28411674 24.25726891 C-11.28411674 23.59726891 -11.28411674 22.93726891 -11.28411674 22.25726891 C-11.94411674 22.25726891 -12.60411674 22.25726891 -13.28411674 22.25726891 C-13.28411674 21.59726891 -13.28411674 20.93726891 -13.28411674 20.25726891 C-13.94411674 20.25726891 -14.60411674 20.25726891 -15.28411674 20.25726891 C-15.36508904 17.81910306 -15.42458646 15.38362507 -15.47161674 12.94476891 C-15.49675346 12.25447594 -15.52189018 11.56418297 -15.54778862 10.85297203 C-15.62169109 5.75370176 -15.62169109 5.75370176 -14.02239799 3.40180016 C-13.44876518 3.02410484 -12.87513237 2.64640953 -12.28411674 2.25726891 C-11.7591246 1.90896912 -11.23413246 1.56066933 -10.69323146 1.20181501 C-7.17575783 -0.17728744 -3.72308133 -0.01937369 0 0 Z " fill="#000000" transform="translate(50.28411674499512,412.74273109436035)"/>
<path d="M0 0 C1.546875 -0.02513672 1.546875 -0.02513672 3.125 -0.05078125 C6.34781693 0.35644969 7.74437933 0.99723551 10 3.3125 C10 4.3025 10 5.2925 10 6.3125 C10.66 6.3125 11.32 6.3125 12 6.3125 C12 10.2725 12 14.2325 12 18.3125 C11.34 18.3125 10.68 18.3125 10 18.3125 C10 18.9725 10 19.6325 10 20.3125 C9.34 20.3125 8.68 20.3125 8 20.3125 C8 20.9725 8 21.6325 8 22.3125 C4.76085771 24.47192819 3.75140267 24.58482978 0 24.5625 C-0.86625 24.56765625 -1.7325 24.5728125 -2.625 24.578125 C-5 24.3125 -5 24.3125 -8 22.3125 C-8 21.6525 -8 20.9925 -8 20.3125 C-8.66 20.3125 -9.32 20.3125 -10 20.3125 C-10 19.6525 -10 18.9925 -10 18.3125 C-10.66 18.3125 -11.32 18.3125 -12 18.3125 C-12 14.3525 -12 10.3925 -12 6.3125 C-11.34 6.3125 -10.68 6.3125 -10 6.3125 C-10 4.9925 -10 3.6725 -10 2.3125 C-6.61494922 0.27007753 -3.92471691 0.01471769 0 0 Z " fill="#010101" transform="translate(285,248.6875)"/>
<path d="M0 0 C0.66 0 1.32 0 2 0 C2 1.98 2 3.96 2 6 C1.34 6 0.68 6 0 6 C0 4.02 0 2.04 0 0 Z " fill="#000000" transform="translate(32,424)"/>
</svg>
